<?xml version="1.0" standalone="no"?>
<!DOCTYPE svg PUBLIC "-//W3C//DTD SVG 20010904//EN"
 "http://www.w3.org/TR/2001/REC-SVG-20010904/DTD/svg10.dtd">
<svg version="1.0" xmlns="http://www.w3.org/2000/svg"
 width="1024.000000pt" height="1024.000000pt" viewBox="0 0 1024.000000 1024.000000"
 preserveAspectRatio="xMidYMid meet">

<g transform="translate(0.000000,1024.000000) scale(0.100000,-0.100000)"
fill="#000000" stroke="none">
<path d="M3699 8188 c-7 -24 -15 -77 -19 -118 -23 -262 95 -543 329 -779 100
-101 230 -211 250 -211 6 0 11 -4 11 -9 0 -5 7 -12 16 -15 9 -3 -33 42 -93
101 -241 237 -365 421 -436 648 -33 106 -51 251 -43 348 4 42 4 77 2 77 -3 0
-11 -19 -17 -42z"/>
<path d="M3502 8015 c0 -16 4 -41 8 -55 l8 -25 0 25 c0 14 -4 39 -8 55 l-8 30
0 -30z"/>
<path d="M3457 7968 c-67 -160 -41 -382 65 -563 106 -180 334 -401 573 -556
87 -57 95 -61 95 -56 0 2 -28 24 -62 47 -225 156 -451 395 -564 596 -38 67
-98 223 -90 232 3 2 10 -7 15 -21 55 -143 182 -342 301 -469 27 -29 50 -56 50
-59 0 -10 198 -183 267 -233 34 -25 65 -42 67 -37 3 5 -3 16 -14 26 -15 13
-17 22 -10 36 6 10 17 16 25 13 8 -4 15 -1 15 6 0 6 5 8 12 4 7 -4 8 -3 4 4
-4 6 -14 8 -23 5 -12 -5 -15 -2 -10 10 4 11 -18 36 -81 89 -121 101 -289 271
-355 359 -118 159 -202 340 -234 508 -10 50 -21 91 -25 91 -4 0 -14 -15 -21
-32z"/>
<path d="M3521 7915 c0 -11 4 -29 9 -40 l9 -20 0 20 c0 11 -4 29 -9 40 l-9 20
0 -20z"/>
<path d="M3811 7904 c0 -11 3 -14 6 -6 3 7 2 16 -1 19 -3 4 -6 -2 -5 -13z"/>
<path d="M3541 7845 c1 -19 18 -51 18 -35 0 8 -4 22 -9 30 -5 8 -9 11 -9 5z"/>
<path d="M3840 7825 c0 -5 5 -17 10 -25 5 -8 10 -10 10 -5 0 6 -5 17 -10 25
-5 8 -10 11 -10 5z"/>
<path d="M3560 7785 c0 -5 5 -17 10 -25 5 -8 10 -10 10 -5 0 6 -5 17 -10 25
-5 8 -10 11 -10 5z"/>
<path d="M3870 7694 c1 -32 197 -346 259 -414 109 -120 138 -147 165 -148 5 0
13 -6 18 -14 6 -9 7 -6 3 9 -4 16 -2 22 7 20 7 -2 10 -2 5 0 -4 3 -4 10 -1 15
4 7 2 8 -4 4 -7 -4 -12 -2 -12 5 0 7 -19 34 -42 60 -24 27 -81 92 -128 146
-47 53 -103 115 -126 138 -22 22 -64 73 -92 114 -29 41 -52 70 -52 65z"/>
<path d="M3286 7488 c-11 -41 -6 -152 9 -216 52 -220 270 -442 607 -617 70
-36 132 -64 137 -61 5 4 12 1 14 -4 3 -6 5 -6 4 -1 -1 5 -40 37 -87 72 -201
148 -417 351 -505 474 -60 85 -120 212 -142 303 -18 75 -27 87 -37 50z"/>
<path d="M3340 7495 c0 -5 5 -17 10 -25 5 -8 10 -10 10 -5 0 6 -5 17 -10 25
-5 8 -10 11 -10 5z"/>
<path d="M5450 7461 c-50 -16 -108 -51 -133 -81 -30 -35 -43 -76 -57 -175 -13
-93 -26 -122 -61 -137 -16 -7 -29 -16 -29 -20 0 -13 -45 -9 -59 5 -11 10 -13
9 -9 -3 15 -51 135 -20 163 42 8 18 19 53 26 77 13 53 53 94 124 127 83 39
157 29 230 -31 24 -19 54 -35 67 -35 34 0 105 22 90 27 -8 3 -34 0 -58 -7
l-45 -13 -47 46 c-26 25 -63 53 -82 61 -32 14 -33 15 -10 16 24 2 24 2 -5 11
-46 15 -123 3 -166 -26 -21 -14 -41 -25 -44 -25 -13 0 -2 32 21 60 35 41 92
69 162 79 l57 9 -55 0 c-30 0 -66 -3 -80 -7z"/>
<path d="M5605 7450 c27 -12 43 -12 25 0 -8 5 -22 9 -30 9 -10 0 -8 -3 5 -9z"/>
<path d="M5800 7434 c-30 -11 -60 -28 -60 -33 0 -4 14 -12 30 -18 32 -12 39
-38 18 -63 -11 -12 -10 -12 4 -1 10 7 20 22 24 33 3 12 11 17 20 14 43 -18 48
-17 25 3 -13 12 -33 21 -45 22 -18 1 -17 2 8 13 20 9 25 15 15 19 -11 4 -10 6
3 6 9 1 29 -4 45 -10 21 -8 25 -7 17 1 -13 13 -81 22 -104 14z"/>
<path d="M6001 7307 c2 -1 15 -11 29 -22 l25 -20 -19 23 c-11 12 -24 22 -29
22 -6 0 -8 -1 -6 -3z"/>
<path d="M3410 7294 c0 -16 94 -149 159 -224 113 -132 228 -244 316 -309 104
-78 172 -121 160 -101 -6 10 -4 12 7 8 13 -5 14 -3 5 16 -6 13 -37 40 -69 61
-54 35 -75 54 -45 42 6 -3 30 -13 52 -22 52 -22 35 -5 -40 41 -175 105 -437
336 -516 455 -16 24 -29 39 -29 33z"/>
<path d="M5970 7291 c0 -5 7 -11 15 -15 27 -10 55 -69 55 -116 1 -42 2 -44 15
-26 23 31 18 68 -16 109 -32 39 -69 65 -69 48z"/>
<path d="M5503 7283 c15 -2 39 -2 55 0 15 2 2 4 -28 4 -30 0 -43 -2 -27 -4z"/>
<path d="M5439 7259 l-24 -20 28 17 c15 9 27 18 27 20 0 8 -8 4 -31 -17z"/>
<path d="M5725 7270 l-30 -8 27 -1 c15 0 30 4 33 9 3 6 5 9 3 9 -2 -1 -16 -5
-33 -9z"/>
<path d="M5903 7237 l-23 -42 25 28 c14 15 25 35 25 43 0 21 -3 18 -27 -29z"/>
<path d="M4976 7209 c-26 -21 -51 -57 -44 -65 2 -2 21 17 42 41 41 50 42 55 2
24z"/>
<path d="M5033 7203 c-10 -10 -14 -15 -9 -10 15 11 105 8 128 -4 11 -6 22 -8
25 -6 10 10 -56 37 -90 37 -19 0 -43 -8 -54 -17z"/>
<path d="M6001 7190 c0 -29 1 -32 10 -17 7 11 7 23 0 35 -9 14 -10 11 -10 -18z"/>
<path d="M4985 7150 c-10 -11 -15 -20 -10 -20 4 0 0 -12 -10 -26 -11 -18 -12
-24 -4 -18 12 7 12 5 1 -9 -12 -14 -10 -24 11 -69 39 -80 70 -110 123 -116 45
-5 130 13 141 30 3 7 -3 7 -18 2 -13 -5 -47 -9 -75 -9 -63 0 -112 34 -143 98
-26 54 -26 81 -1 117 24 33 11 49 -15 20z"/>
<path d="M5887 7148 c-11 -5 -64 -12 -118 -15 -130 -8 -116 -26 15 -21 74 2
99 7 113 20 20 21 15 30 -10 16z"/>
<path d="M5976 7135 c-11 -8 -15 -15 -9 -15 6 0 16 7 23 15 16 19 11 19 -14 0z"/>
<path d="M5453 7070 c-22 -13 -36 -32 -44 -60 -11 -36 -10 -47 9 -93 12 -29
22 -57 22 -63 0 -6 9 -19 20 -29 21 -19 20 -19 -14 -54 -44 -46 -70 -105 -57
-129 9 -15 10 -14 11 7 0 48 72 131 113 131 8 0 18 -10 22 -22 6 -20 8 -20 12
-5 3 10 -9 34 -26 56 -45 56 -39 107 8 81 23 -12 17 -45 -5 -36 -8 3 -14 1
-14 -4 0 -18 29 -10 41 11 9 17 7 25 -12 45 -12 13 -33 24 -46 24 -16 0 -24 7
-29 24 -8 32 0 44 39 55 21 6 25 10 12 10 -28 1 -65 -26 -65 -48 0 -9 7 -26
15 -37 17 -22 19 -34 5 -34 -13 0 -40 54 -40 79 0 11 11 33 24 48 20 23 32 28
70 27 35 -1 50 -6 65 -25 15 -19 28 -24 63 -23 24 0 56 9 71 19 34 22 30 28
-10 14 -48 -16 -114 -8 -127 16 -6 11 -15 23 -21 27 -19 14 -80 8 -112 -12z"/>
<path d="M5897 7065 c14 -23 18 -49 17 -120 0 -78 1 -85 9 -48 13 56 0 147
-24 175 l-20 23 18 -30z"/>
<path d="M5915 7080 c3 -5 16 -10 28 -9 21 0 21 1 2 9 -28 12 -37 12 -30 0z"/>
<path d="M5978 7083 c22 -9 12 -22 -20 -26 l-33 -4 36 -1 c41 -2 72 21 43 32
-8 3 -21 6 -27 5 -8 0 -8 -2 1 -6z"/>
<path d="M3240 6968 c0 -32 37 -134 65 -178 37 -59 118 -144 180 -189 28 -21
112 -75 188 -120 75 -46 137 -86 137 -89 0 -2 -28 -2 -62 1 l-63 5 58 -15 c40
-11 55 -18 45 -24 -10 -7 -8 -9 7 -10 11 0 29 -2 40 -5 74 -16 115 -11 115 13
0 9 -5 11 -12 7 -9 -6 -9 -3 0 9 8 9 11 21 8 26 -4 5 1 14 10 19 12 7 5 13
-33 27 -118 44 -294 136 -368 192 -97 74 -184 164 -250 258 -61 89 -65 93 -65
73z"/>
<path d="M3320 6930 c23 -27 47 -53 53 -57 7 -4 -10 19 -37 50 -27 31 -51 57
-53 57 -3 0 14 -22 37 -50z"/>
<path d="M4961 6942 c-8 -2 3 -10 25 -18 21 -7 39 -12 41 -11 7 7 -54 34 -66
29z"/>
<path d="M5839 6920 c18 -11 35 -19 37 -17 7 7 -19 24 -46 32 -20 5 -19 3 9
-15z"/>
<path d="M4920 6911 c-5 -11 -9 -32 -9 -48 1 -25 2 -25 8 7 4 20 11 41 15 48
4 7 5 12 2 12 -3 0 -10 -9 -16 -19z"/>
<path d="M4156 6903 c-6 -14 -5 -15 5 -6 7 7 10 15 7 18 -3 3 -9 -2 -12 -12z"/>
<path d="M5770 6869 c39 -31 54 -37 71 -30 12 4 14 12 8 29 -7 19 -16 22 -56
22 l-48 0 25 -21z"/>
<path d="M3450 6787 c118 -123 240 -209 389 -274 120 -53 104 -38 -35 32 -141
70 -238 139 -354 249 l-75 71 75 -78z"/>
<path d="M4940 6852 c0 -7 11 -24 25 -37 21 -22 33 -25 87 -24 l63 2 -55 7
c-62 8 -94 22 -109 48 -6 10 -11 12 -11 4z"/>
<path d="M5921 6830 c0 -37 24 -136 31 -125 3 6 -2 42 -13 80 -10 39 -18 59
-18 45z"/>
<path d="M5143 6783 c-31 -16 -53 -50 -52 -81 0 -9 5 -1 12 18 7 19 24 41 38
49 25 14 29 13 59 -12 17 -15 43 -27 56 -27 39 0 91 26 105 52 11 22 11 22 -7
6 -11 -10 -37 -24 -57 -33 -34 -14 -40 -14 -68 0 -16 9 -33 23 -36 31 -6 17
-10 17 -50 -3z"/>
<path d="M4896 6751 c-4 -6 -14 -7 -23 -4 -12 5 -14 3 -8 -7 6 -10 4 -12 -8
-7 -36 14 -13 -5 81 -66 53 -35 106 -74 117 -87 19 -23 19 -23 -15 2 -36 26
-139 86 -130 76 3 -4 47 -36 98 -72 70 -50 92 -61 92 -48 0 31 -54 105 -111
152 -84 70 -87 72 -93 61z m19 -11 c3 -5 1 -10 -4 -10 -6 0 -11 5 -11 10 0 6
2 10 4 10 3 0 8 -4 11 -10z"/>
<path d="M5136 6724 c-6 -17 9 -54 23 -54 4 0 15 8 24 18 13 14 13 20 3 35
-16 21 -42 22 -50 1z"/>
<path d="M5890 6700 l-25 -8 28 -1 c15 -1 27 4 27 9 0 6 -1 10 -2 9 -2 -1 -14
-5 -28 -9z"/>
<path d="M5326 6622 c-16 -50 -68 -103 -133 -136 -64 -33 -83 -49 -28 -24 14
6 28 9 31 6 3 -4 -13 -40 -36 -81 -41 -75 -41 -75 -70 -64 -38 14 -76 1 -104
-36 -17 -23 -21 -43 -21 -100 0 -60 6 -83 33 -141 78 -166 175 -296 298 -401
62 -54 63 -48 0 30 -46 59 -109 188 -131 271 -25 92 -30 237 -11 317 20 86 40
124 114 219 67 87 90 134 74 150 -7 7 -12 4 -16 -10z m-221 -326 c16 -12 19
-25 16 -103 -3 -106 28 -272 63 -342 13 -25 31 -64 40 -85 l16 -39 -21 19
c-32 28 -157 219 -195 299 -56 115 -57 184 -4 237 31 31 56 35 85 14z"/>
<path d="M5805 6630 c3 -5 17 -10 31 -10 13 0 24 5 24 10 0 6 -14 10 -31 10
-17 0 -28 -4 -24 -10z"/>
<path d="M5800 6579 c0 -5 5 -7 10 -4 6 3 10 8 10 11 0 2 -4 4 -10 4 -5 0 -10
-5 -10 -11z"/>
<path d="M4769 6568 c-6 -20 -2 -61 6 -67 20 -15 167 -72 177 -69 6 2 -7 18
-28 35 -42 32 -153 105 -155 101z"/>
<path d="M3300 6522 c0 -11 18 -56 40 -100 50 -100 105 -151 216 -203 105 -49
300 -112 325 -106 10 3 17 1 13 -4 -3 -5 2 -9 10 -9 18 0 32 20 14 21 -7 0 -5
4 5 8 17 6 17 8 -5 18 -13 7 -66 24 -118 38 -166 47 -299 123 -400 232 -34 36
-59 68 -56 71 3 3 36 -9 73 -26 38 -16 79 -33 93 -36 24 -6 -16 15 -68 35 -13
5 -20 13 -17 19 4 6 -1 7 -11 3 -11 -4 -15 -2 -11 4 4 6 -14 18 -41 29 -26 11
-50 21 -54 22 -5 2 -8 -5 -8 -16z"/>
<path d="M5605 6494 c4 -27 13 -61 21 -75 16 -32 83 -93 196 -179 110 -83 132
-114 126 -177 -3 -27 -17 -76 -33 -111 l-28 -63 24 -25 c13 -14 31 -51 41 -82
l16 -57 -5 113 c-4 79 -3 116 5 121 6 4 14 43 18 88 8 102 -4 126 -95 178
-156 90 -261 191 -261 253 0 30 8 32 80 17 36 -7 67 -12 69 -9 7 6 2 8 -74 28
-38 10 -78 20 -89 24 -17 5 -18 1 -11 -44z"/>
<path d="M3950 6470 c8 -5 20 -10 25 -10 6 0 3 5 -5 10 -8 5 -19 10 -25 10 -5
0 -3 -5 5 -10z"/>
<path d="M5012 6385 c-70 -63 -92 -113 -90 -201 l1 -69 6 82 c6 69 11 89 37
125 16 23 49 57 73 75 23 18 38 33 33 33 -5 0 -32 -20 -60 -45z"/>
<path d="M4675 6390 c3 -5 14 -10 23 -10 14 0 15 -2 2 -10 -13 -8 -13 -10 0
-14 32 -10 155 -35 158 -31 6 6 -37 26 -111 51 -81 27 -80 27 -72 14z"/>
<path d="M5222 6355 c-17 -37 -14 -45 4 -12 9 16 14 31 11 33 -2 2 -9 -7 -15
-21z"/>
<path d="M6375 6373 c-46 -7 -47 -22 -4 -63 28 -27 37 -42 33 -55 -6 -15 -4
-16 14 -6 11 6 38 12 59 12 21 1 31 3 22 6 -12 3 -14 13 -10 46 l6 42 48 3
c26 2 47 1 47 -2 0 -4 -9 -15 -20 -26 -11 -11 -20 -29 -20 -40 0 -10 -7 -23
-16 -28 -13 -7 -14 -11 -4 -17 14 -9 30 11 30 38 0 10 13 26 30 35 31 18 39
40 18 47 -22 6 -202 13 -233 8z m85 -58 c0 -38 -3 -45 -19 -45 -12 0 -22 9
-26 23 -4 12 -19 32 -33 44 l-27 23 53 0 52 0 0 -45z"/>
<path d="M3748 6363 c7 -3 16 -2 19 1 4 3 -2 6 -13 5 -11 0 -14 -3 -6 -6z"/>
<path d="M5498 6333 c17 -2 47 -2 65 0 17 2 3 4 -33 4 -36 0 -50 -2 -32 -4z"/>
<path d="M5191 6264 c0 -11 3 -14 6 -6 3 7 2 16 -1 19 -3 4 -6 -2 -5 -13z"/>
<path d="M5182 6220 c0 -14 2 -19 5 -12 2 6 2 18 0 25 -3 6 -5 1 -5 -13z"/>
<path d="M6410 6201 c0 -17 2 -31 4 -31 8 0 13 51 5 56 -5 3 -9 -9 -9 -25z"/>
<path d="M6531 6194 c0 -11 3 -14 6 -6 3 7 2 16 -1 19 -3 4 -6 -2 -5 -13z"/>
<path d="M3470 6146 c0 -25 101 -125 163 -162 33 -19 92 -46 132 -59 74 -25
201 -45 177 -27 -8 5 -13 13 -12 17 0 5 -42 21 -94 35 -107 30 -213 79 -242
111 l-19 22 35 -8 c72 -15 87 -16 53 -3 -17 7 -35 17 -40 21 -4 5 5 3 20 -2
16 -6 34 -11 40 -10 9 0 -193 76 -210 79 -2 0 -3 -6 -3 -14z"/>
<path d="M6305 6113 c-52 -13 -100 -100 -77 -139 10 -17 11 -17 12 6 0 31 26
70 46 70 11 0 12 4 4 19 -11 22 1 36 25 28 7 -3 16 1 19 9 6 15 4 15 -29 7z"/>
<path d="M3708 6073 c7 -3 16 -2 19 1 4 3 -2 6 -13 5 -11 0 -14 -3 -6 -6z"/>
<path d="M4940 6075 c0 -5 5 -17 10 -25 5 -8 10 -10 10 -5 0 6 -5 17 -10 25
-5 8 -10 11 -10 5z"/>
<path d="M3748 6063 c6 -2 18 -2 25 0 6 3 1 5 -13 5 -14 0 -19 -2 -12 -5z"/>
<path d="M3708 6053 c7 -3 16 -2 19 1 4 3 -2 6 -13 5 -11 0 -14 -3 -6 -6z"/>
<path d="M4717 6050 c-46 -9 -55 -16 -28 -25 19 -6 179 20 189 30 8 7 -117 4
-161 -5z"/>
<path d="M4763 5987 c-23 -7 -48 -18 -55 -26 -11 -11 -9 -12 12 -6 14 4 45 16
70 26 50 20 37 23 -27 6z"/>
<path d="M4826 5904 c-104 -51 -104 -51 -69 -49 27 2 98 34 166 75 62 38 -4
20 -97 -26z"/>
<path d="M5981 5934 c0 -11 3 -14 6 -6 3 7 2 16 -1 19 -3 4 -6 -2 -5 -13z"/>
<path d="M5667 5905 c12 -16 65 -73 119 -125 63 -62 88 -81 69 -55 -37 52 -98
116 -160 168 -44 37 -47 39 -28 12z"/>
<path d="M5992 5880 c0 -19 2 -27 5 -17 2 9 2 25 0 35 -3 9 -5 1 -5 -18z"/>
<path d="M4866 5835 c-27 -19 -46 -35 -42 -35 9 0 96 59 96 65 0 8 -3 6 -54
-30z"/>
<path d="M3712 5849 c6 -17 87 -45 153 -53 l50 -6 -45 17 -45 18 50 5 c49 5
49 5 -29 13 -43 5 -92 11 -109 14 -22 5 -29 3 -25 -8z"/>
<path d="M5410 5847 c3 -2 39 -32 81 -64 82 -65 232 -211 320 -311 l56 -63 69
7 c126 12 156 23 49 18 -55 -3 -105 -1 -111 3 -6 4 -19 24 -29 43 -23 45 -220
239 -294 289 -49 34 -154 92 -141 78z"/>
<path d="M4929 5783 c-75 -67 -110 -105 -104 -112 5 -5 31 16 108 89 43 39 75
80 64 80 -2 0 -32 -26 -68 -57z"/>
<path d="M6003 5800 c0 -25 2 -35 4 -22 2 12 2 32 0 45 -2 12 -4 2 -4 -23z"/>
<path d="M4956 5752 c-49 -56 -49 -56 -7 -17 35 33 70 77 59 74 -2 0 -25 -26
-52 -57z"/>
<path d="M6011 5724 c0 -11 3 -14 6 -6 3 7 2 16 -1 19 -3 4 -6 -2 -5 -13z"/>
<path d="M5040 5645 c-24 -25 -40 -45 -34 -45 5 0 30 20 54 45 24 25 40 45 34
45 -5 0 -30 -20 -54 -45z"/>
<path d="M4974 5628 c-12 -14 -13 -18 -3 -10 9 6 18 10 21 7 2 -3 5 2 5 10 0
19 0 19 -23 -7z"/>
<path d="M3935 5620 c-31 -5 -36 -8 -22 -14 9 -5 24 -6 32 -2 8 3 15 1 15 -4
0 -6 4 -10 9 -10 6 0 9 9 8 20 -1 11 -1 19 -2 19 0 -1 -18 -5 -40 -9z"/>
<path d="M3990 5621 c0 -5 6 -11 13 -14 8 -3 14 1 14 9 0 8 -6 14 -14 14 -7 0
-13 -4 -13 -9z"/>
<path d="M4939 5573 c-13 -16 -12 -17 4 -4 16 13 21 21 13 21 -2 0 -10 -8 -17
-17z"/>
<path d="M5447 5527 l-17 -32 20 24 c17 20 26 41 18 41 -2 0 -11 -15 -21 -33z"/>
<path d="M5445 5477 c-8 -13 -28 -33 -44 -45 -29 -21 -32 -21 -91 -6 -39 10
-77 13 -103 9 -57 -10 -132 -51 -162 -91 -24 -32 -24 -34 -7 -43 15 -8 23 -5
41 19 45 61 156 95 222 67 81 -33 159 -133 216 -272 41 -100 43 -84 4 24 -31
83 -76 176 -110 226 l-20 30 28 30 c28 30 56 75 47 75 -3 0 -12 -10 -21 -23z
m-386 -170 c0 -9 -2 -8 -6 1 -2 6 -10 9 -15 6 -7 -4 -8 -2 -4 5 9 13 26 5 25
-12z"/>
<path d="M5925 5369 c-58 -18 -95 -65 -95 -120 0 -29 9 -48 42 -87 24 -28 45
-49 47 -46 3 2 -6 22 -18 44 -27 48 -32 116 -11 155 8 16 33 36 55 46 42 19
31 24 -20 8z"/>
<path d="M5926 5323 c-6 -14 -5 -15 5 -6 7 7 10 15 7 18 -3 3 -9 -2 -12 -12z"/>
<path d="M5184 5311 c-50 -23 -78 -58 -61 -76 9 -9 15 -7 29 11 10 12 34 28
52 34 50 16 102 -13 159 -90 164 -217 129 -529 -70 -626 -46 -23 -74 -29 -152
-33 -103 -5 -88 -18 24 -20 154 -2 290 78 348 207 32 71 35 206 8 306 -66 239
-197 351 -337 287z"/>
<path d="M5792 5161 c38 -32 77 -55 85 -48 5 6 -97 77 -110 77 -4 0 7 -13 25
-29z"/>
<path d="M5873 5073 c9 -2 23 -2 30 0 6 3 -1 5 -18 5 -16 0 -22 -2 -12 -5z"/>
<path d="M5189 4983 c14 -28 14 -36 -1 -27 -6 4 -1 -10 12 -32 26 -44 48 -70
31 -37 -14 28 -14 36 1 27 6 -4 1 10 -12 32 -26 44 -48 70 -31 37z m31 -54 c0
-6 -4 -7 -10 -4 -5 3 -10 11 -10 16 0 6 5 7 10 4 6 -3 10 -11 10 -16z"/>
<path d="M5120 4955 c0 -8 -5 -15 -11 -15 -5 0 -7 5 -3 12 4 7 3 8 -4 4 -23
-14 28 -86 150 -214 33 -35 63 -61 65 -58 3 3 -2 23 -11 46 -9 22 -14 40 -11
40 3 0 -2 14 -10 31 -9 17 -14 33 -11 36 6 6 -21 63 -30 63 -2 0 0 -9 6 -19
13 -26 13 -34 -2 -25 -7 4 -2 -10 11 -32 l23 -39 -22 20 c-12 11 -45 53 -73
93 -50 71 -67 86 -67 57z"/>
<path d="M4833 4567 c11 -7 33 -24 50 -40 60 -52 188 -116 277 -138 81 -20
202 -28 284 -19 92 11 216 45 216 60 0 6 5 9 11 7 6 -1 14 4 16 10 3 9 -8 8
-39 -4 -29 -11 -94 -18 -203 -23 -139 -6 -147 -7 -60 -8 120 -3 113 -22 -8
-22 -153 0 -354 61 -474 145 -35 25 -69 45 -76 44 -7 0 -4 -6 6 -12z"/>
<path d="M4705 4450 c10 -16 144 -98 200 -123 101 -44 170 -57 295 -57 114 0
147 5 268 37 86 22 71 28 -24 8 -207 -43 -467 -3 -669 103 -41 21 -72 36 -70
32z"/>
<path d="M1769 3897 c-143 -41 -218 -139 -219 -287 0 -95 13 -141 52 -186 45
-51 102 -76 293 -128 288 -78 355 -128 363 -266 5 -90 -17 -156 -69 -209 -61
-61 -132 -85 -254 -85 -121 -1 -216 26 -291 82 -60 46 -86 91 -121 205 -15 48
-30 87 -35 87 -9 0 -9 -93 1 -225 4 -63 9 -83 14 -67 11 29 19 28 86 -12 106
-65 169 -80 326 -81 124 0 148 3 207 24 133 48 214 139 238 267 32 171 -36
312 -183 379 -29 13 -97 36 -152 50 -176 47 -291 86 -327 110 -89 60 -90 205
-2 287 91 83 328 75 448 -17 32 -24 70 -88 113 -190 5 -13 9 27 11 109 3 130
-1 155 -19 123 -14 -24 -50 -21 -144 9 -96 32 -261 42 -336 21z"/>
<path d="M8355 3883 c-121 -16 -239 -75 -325 -162 -111 -112 -170 -260 -170
-425 0 -155 45 -277 138 -378 117 -127 258 -188 432 -188 155 0 268 44 349
136 50 57 55 84 5 31 -98 -105 -202 -150 -349 -151 -79 -1 -98 3 -153 28 -164
76 -252 261 -252 531 0 270 86 458 247 537 60 29 74 32 152 31 188 -2 300 -88
367 -283 l19 -55 3 83 c2 46 2 118 0 160 -3 69 -4 74 -15 50 -6 -14 -16 -29
-22 -32 -6 -4 -52 11 -103 32 -124 53 -219 69 -323 55z"/>
<path d="M4882 3788 c-25 -70 -136 -333 -187 -445 -14 -32 -17 -33 -72 -33
-58 0 -123 -23 -130 -46 -3 -9 20 -10 82 -7 l85 6 -24 -54 c-13 -30 -48 -112
-77 -183 -41 -100 -62 -138 -92 -168 l-39 -38 71 0 c71 0 84 7 56 30 -27 22
-16 71 52 242 56 139 71 168 88 168 11 0 98 -24 194 -52 l173 -53 48 -95 c26
-52 54 -111 63 -131 l15 -36 -78 5 c-89 5 -126 -8 -275 -98 -141 -85 -190
-104 -270 -104 -160 0 -201 31 -446 331 -109 134 -199 247 -199 251 0 4 34 18
75 30 135 43 187 113 187 252 0 171 -87 252 -303 280 -69 8 -499 1 -454 -8 46
-9 45 4 45 -544 l0 -519 -22 -9 c-15 -6 24 -9 117 -8 112 0 133 2 108 10 l-33
11 0 247 0 247 72 6 c60 5 76 3 92 -11 10 -9 91 -102 180 -207 262 -310 297
-343 413 -385 50 -18 77 -21 150 -19 104 5 165 30 353 148 137 85 174 98 246
82 58 -13 69 -23 145 -135 77 -114 137 -171 216 -209 59 -27 79 -32 148 -32
166 0 295 88 295 202 0 62 -23 56 -59 -16 -59 -116 -112 -151 -210 -136 -124
19 -214 80 -269 182 -29 56 -214 489 -392 917 -48 116 -91 211 -97 213 -5 2
-24 -34 -41 -79z m-985 14 c22 -12 51 -34 62 -48 59 -75 67 -252 16 -339 -45
-78 -108 -107 -257 -120 l-78 -7 -1 228 c-1 126 -3 245 -4 264 -1 19 1 39 3
44 2 4 52 6 111 4 84 -3 115 -8 148 -26z m1004 -264 c23 -57 62 -147 86 -202
24 -54 43 -104 43 -111 0 -8 -40 0 -124 25 -68 21 -143 41 -166 45 -33 6 -40
10 -35 23 35 96 139 330 145 327 4 -3 27 -51 51 -107z"/>
<path d="M2735 3842 c-247 -3 -285 -6 -255 -16 l35 -13 0 -524 0 -524 -30 -6
c-59 -11 508 -20 590 -10 108 15 196 58 238 118 69 97 90 205 63 313 -21 80
-54 132 -108 167 -34 23 -52 28 -102 27 -37 0 -73 -7 -93 -17 -26 -14 -59 -17
-170 -17 -76 0 -155 3 -175 6 l-38 7 0 232 0 232 38 7 c67 11 405 6 440 -7 34
-12 49 -32 76 -97 14 -35 14 -34 15 48 l1 82 -117 -2 c-65 -2 -248 -4 -408 -6z
m263 -527 c1 -1 -8 -23 -22 -48 -31 -60 -40 -115 -26 -166 16 -61 40 -55 40
12 0 72 16 121 50 161 40 45 79 59 145 54 66 -6 117 -41 155 -109 53 -94 24
-254 -61 -337 -83 -82 -186 -111 -416 -119 l-173 -6 0 286 0 286 153 -6 c83
-3 153 -7 155 -8z"/>
<path d="M5585 3842 c-123 -3 -136 -5 -105 -15 l35 -12 3 -522 2 -521 -27 -10
c-21 -8 6 -11 112 -11 119 -1 136 1 115 12 l-25 13 -3 527 -2 527 93 0 c129 0
185 -18 237 -77 54 -62 74 -130 68 -239 -6 -105 -42 -183 -106 -228 -35 -25
-55 -31 -112 -34 -66 -4 -71 -3 -100 26 -24 24 -30 39 -31 74 0 39 -1 41 -12
20 -8 -18 -7 -33 4 -65 11 -33 23 -47 59 -65 39 -20 56 -23 130 -20 110 5 197
44 263 118 61 67 81 129 75 230 -7 123 -61 197 -172 239 -77 28 -165 41 -271
39 -49 -1 -153 -4 -230 -6z"/>
<path d="M6368 3820 l32 -20 -2 -512 -3 -513 -35 -12 c-30 -10 -12 -12 120
-11 85 0 145 3 133 5 -49 9 -53 30 -53 285 0 217 1 237 18 242 9 2 148 6 307
8 l290 3 3 -254 c1 -172 -1 -258 -9 -267 -6 -7 -23 -15 -37 -17 -15 -2 41 -5
123 -5 137 -1 147 0 118 13 l-33 14 0 514 c0 542 -1 528 45 540 11 2 -47 5
-130 5 -109 0 -141 -2 -118 -9 21 -6 35 -17 38 -32 3 -12 4 -125 3 -252 l-3
-230 -305 0 -305 0 -2 240 c-2 132 1 246 6 253 5 8 24 18 42 22 22 5 -20 8
-121 9 l-155 1 33 -20z"/>
<path d="M7500 3827 l35 -12 3 -522 2 -523 -22 -4 c-13 -3 -32 -7 -43 -9 -11
-3 52 -5 140 -4 88 0 150 2 138 4 -48 9 -47 7 -51 507 -2 259 1 489 5 511 7
34 14 42 43 52 30 10 12 12 -125 12 -137 0 -155 -2 -125 -12z"/>
<path d="M4004 2356 c-43 -19 -64 -53 -64 -103 0 -55 22 -78 97 -98 32 -8 69
-21 83 -28 34 -17 47 -57 31 -95 -22 -53 -96 -68 -164 -33 -23 12 -39 15 -43
9 -10 -16 17 -36 66 -49 97 -26 180 21 180 101 0 72 -29 99 -129 121 -50 10
-91 44 -91 75 0 68 88 106 159 69 27 -14 41 -11 41 7 0 14 -66 38 -102 38 -18
-1 -47 -7 -64 -14z"/>
<path d="M4482 2349 c-141 -70 -140 -302 1 -376 64 -33 187 -16 226 30 20 25
-4 29 -41 8 -47 -27 -90 -34 -135 -22 -43 12 -96 61 -112 104 -27 71 3 178 61
220 38 28 118 34 174 12 46 -17 62 -16 49 5 -26 42 -154 53 -223 19z"/>
<path d="M4950 2165 l0 -205 125 0 c104 0 125 2 125 15 0 12 -19 15 -110 15
l-111 0 3 78 3 77 93 3 c73 2 92 6 92 17 0 12 -18 15 -95 15 l-96 0 3 78 3 77
108 3 c86 2 107 6 107 17 0 12 -22 15 -125 15 l-125 0 0 -205z"/>
<path d="M5987 2363 c-18 -17 -1 -23 63 -23 l70 0 0 -191 c0 -176 1 -190 18
-187 15 3 17 21 20 191 l2 187 65 0 c51 0 65 3 65 15 0 13 -23 15 -148 15 -82
0 -152 -3 -155 -7z"/>
<path d="M5430 2160 c0 -193 1 -200 20 -200 19 0 20 7 21 168 l0 167 24 -30
c14 -16 71 -91 127 -165 57 -74 111 -136 121 -138 16 -3 17 13 17 197 0 199 0
201 -21 201 -21 0 -22 -2 -17 -148 3 -81 2 -155 -1 -165 -5 -13 -33 19 -112
125 -59 79 -113 153 -120 166 -8 12 -24 22 -36 22 l-23 0 0 -200z"/>
</g>
</svg>
